<svg xmlns="http://www.w3.org/2000/svg" xmlns:xlink="http://www.w3.org/1999/xlink" width="1266.51" height="343.732" viewBox="0 0 1266.51 343.732">
  <defs>
    <linearGradient id="linear-gradient" x1="0.236" y1="0.164" x2="0.786" y2="0.796" gradientUnits="objectBoundingBox">
      <stop offset="0" stop-color="#cde689"/>
      <stop offset="1" stop-color="#4ade80"/>
    </linearGradient>
    <linearGradient id="linear-gradient-2" x1="0.744" y1="0.488" x2="0.5" y2="1" gradientUnits="objectBoundingBox">
      <stop offset="0" stop-color="#50de80"/>
      <stop offset="1" stop-color="#2b914e"/>
    </linearGradient>
    <linearGradient id="linear-gradient-3" x1="0.256" y1="0.512" x2="0.5" gradientUnits="objectBoundingBox">
      <stop offset="0" stop-color="#bce588"/>
      <stop offset="1" stop-color="#cde689"/>
    </linearGradient>
  </defs>
  <g id="Group_96" data-name="Group 96" transform="translate(-988.471 -406.846)">
    <path id="Exclusion_1" data-name="Exclusion 1" d="M-7359-7078a92.674,92.674,0,0,1-18.541-1.869,91.52,91.52,0,0,1-17.27-5.361,92.007,92.007,0,0,1-15.627-8.482,92.685,92.685,0,0,1-13.616-11.234,92.623,92.623,0,0,1-11.234-13.616,92.053,92.053,0,0,1-8.482-15.627,91.574,91.574,0,0,1-5.361-17.27A92.682,92.682,0,0,1-7451-7170a92.67,92.67,0,0,1,1.869-18.541,91.574,91.574,0,0,1,5.361-17.27,92.053,92.053,0,0,1,8.482-15.627,92.674,92.674,0,0,1,11.234-13.616,92.7,92.7,0,0,1,13.616-11.234,92.053,92.053,0,0,1,15.627-8.482,91.563,91.563,0,0,1,17.27-5.361A92.674,92.674,0,0,1-7359-7262a92.682,92.682,0,0,1,18.541,1.869,91.563,91.563,0,0,1,17.27,5.361,92.053,92.053,0,0,1,15.627,8.482,92.65,92.65,0,0,1,13.615,11.234,92.674,92.674,0,0,1,11.234,13.616,92.041,92.041,0,0,1,8.482,15.627,91.527,91.527,0,0,1,5.36,17.27A92.674,92.674,0,0,1-7267-7170a92.682,92.682,0,0,1-1.869,18.541,91.562,91.562,0,0,1-5.36,17.27,92.041,92.041,0,0,1-8.482,15.627,92.623,92.623,0,0,1-11.234,13.616,92.683,92.683,0,0,1-13.615,11.234,92.026,92.026,0,0,1-15.627,8.482,91.52,91.52,0,0,1-17.27,5.361A92.682,92.682,0,0,1-7359-7078Zm0-144a51.679,51.679,0,0,0-20.241,4.086,51.826,51.826,0,0,0-16.529,11.144,51.832,51.832,0,0,0-11.144,16.529A51.679,51.679,0,0,0-7411-7170a51.679,51.679,0,0,0,4.086,20.241,51.837,51.837,0,0,0,11.144,16.529,51.828,51.828,0,0,0,16.529,11.144A51.679,51.679,0,0,0-7359-7118a51.679,51.679,0,0,0,20.241-4.086,51.84,51.84,0,0,0,16.53-11.144,51.837,51.837,0,0,0,11.144-16.529A51.667,51.667,0,0,0-7307-7170a51.667,51.667,0,0,0-4.087-20.241,51.816,51.816,0,0,0-11.144-16.529,51.836,51.836,0,0,0-16.53-11.144A51.679,51.679,0,0,0-7359-7222Z" transform="translate(8690 7795)" fill="url(#linear-gradient)"/>
    <path id="Path_93" data-name="Path 93" d="M69.161.089c-7.432,33.994-15.485,51.751-34.356,83.1-13.971,13.737-10.653,1.022-15.033-1.935A100.217,100.217,0,0,1,0,88.687C19.465,72.13,33.844,36.64,39.113,23.228c.43-1.244,2.3-7.762,2.57-9.139C50.045,10.208,54.337-1.115,69.161.089Z" transform="matrix(0.978, 0.208, -0.208, 0.978, 1353.589, 629.889)" opacity="0.25"/>
    <path id="Path_94" data-name="Path 94" d="M530.559-278.666q0,51.537-37.783,88.53-37.625,36.993-90.427,36.993c63.889-16.249,92.29-88.1,95.871-98.242C499-252.971,515.319-278.666,530.559-278.666Z" transform="translate(892.451 903.721)" fill="url(#linear-gradient-2)"/>
    <path id="Path_90" data-name="Path 90" d="M69.161.089c-7.432,33.994-15.485,51.752-34.356,83.1-13.971,13.737-10.653,1.022-15.033-1.935A100.216,100.216,0,0,1,0,88.687C19.465,72.13,33.844,36.64,39.112,23.228c.43-1.244,2.3-7.762,2.57-9.139C50.045,10.208,54.337-1.115,69.161.089Z" transform="matrix(-0.978, -0.208, 0.208, -0.978, 1308.898, 620.223)" opacity="0.25"/>
    <path id="Path_85" data-name="Path 85" d="M402.349-153.142q0-51.537,37.783-88.531,37.625-36.993,90.427-36.993c-63.889,16.249-92.457,88.039-96.038,98.183C433.738-178.9,417.589-153.142,402.349-153.142Z" transform="translate(836.651 778.198)" fill="url(#linear-gradient-3)"/>
    <path id="Path_101" data-name="Path 101" d="M125.49-143.215,92.522-125.667q-7.8-15.952-19.32-15.952a13.29,13.29,0,0,0-9.394,3.634,12.154,12.154,0,0,0-3.9,9.305q0,9.926,23.042,19.674,31.727,13.648,42.716,25.169t10.989,31.018q0,24.992-18.434,41.83Q100.321,4.963,74.975,4.963q-43.425,0-61.5-42.362L47.5-53.174Q54.592-40.767,58.314-37.4a24.669,24.669,0,0,0,17.37,6.735q20.206,0,20.206-18.434,0-10.635-15.6-19.852Q74.266-71.962,68.24-74.8T56.01-80.647Q38.64-89.155,31.55-97.663q-9.04-10.812-9.04-27.828,0-22.51,15.42-37.222,15.775-14.711,38.285-14.711Q109.361-177.423,125.49-143.215Zm88.091,7.8V0H173.7V-135.416H156.686v-37.222H173.7v-63.277h39.88v63.277H244.6v37.222Z" transform="translate(975 711)" fill="#fff"/>
    <path id="Path_100" data-name="Path 100" d="M25.169-172.638h39.88v15.42q10.989-11.521,19.5-15.775,8.685-4.431,20.561-4.431,15.775,0,32.968,10.28L119.818-130.63q-11.344-8.153-22.156-8.153-32.613,0-32.613,49.274V0H25.169Zm141.265,0h39.88v15.952q11.521-12.053,19.674-16.307,8.685-4.431,21.8-4.431,29.246,0,46.261,25.523,18.788-25.523,50.87-25.523,58.314,0,58.314,70.721V0H363.177V-95.89q0-24.814-6.026-35.095-6.2-10.458-20.383-10.458-16.484,0-24.017,12.407t-7.533,39.88V0H265.16V-95.358q0-46.084-26.587-46.084-16.838,0-24.549,12.584t-7.71,39.7V0h-39.88Z" transform="translate(1428 711)" fill="#fff"/>
    <path id="Path_99" data-name="Path 99" d="M65.049-299.369V0H25.169V-299.369Zm90.4,126.731V0h-39.88V-172.638Zm-45.907-71.785A24.7,24.7,0,0,1,117.16-262.5a24.906,24.906,0,0,1,18.256-7.622A25.111,25.111,0,0,1,153.85-262.5a24.531,24.531,0,0,1,7.622,18.256,25.111,25.111,0,0,1-7.622,18.434,24.531,24.531,0,0,1-18.256,7.622,25.111,25.111,0,0,1-18.434-7.622A25.319,25.319,0,0,1,109.538-244.422Zm137.72,109.006V0H207.2V-135.416h-14.18v-37.222H207.2v-66.645q0-32.613,11.344-46.084,15.6-18.788,45.375-18.788,10.635,0,26.764,6.2v40.767l-4.077-2.127q-12.939-6.558-21.27-6.558-10.635,0-14.357,7.622-3.722,7.444-3.722,28.714v56.9h43.425v37.222Zm120.7,0V0h-39.88V-135.416H311.067v-37.222h17.016v-63.277h39.88v63.277h31.018v37.222Z" transform="translate(1856 711)" fill="#fff"/>
  </g>
</svg>
